#!OML:ASF H:\Pregnant\Project 1\Capture day 1\Session 1\femalepreg.ASF
:FULLY-SPECIFIED
:DEGREES
393
root 3.72688 11.1417 9.62441 67.606 -10.5756 -0.255021
lowerback -1.90466 -0.32458 -4.54816
upperback -11.0376 -0.613585 0.732865
thorax -10.6559 0.146097 3.37344
lowerneck -53.8144 -1.87445 0.121768
upperneck -1.27361 -3.41671 5.70589
head 6.02619 -0.946461 1.64468
rclavicle -3.97569e-015 -6.5102e-015
rhumerus -21.0515 22.1485 -69.8009
rradius 99.2707
rwrist -14.6195
rhand -30.5592 -14.3401
rfingers 7.12502
rthumb -3.85746 -44.285
lclavicle -3.97569e-015 -6.5102e-015
lhumerus -20.1735 -2.74823 66.9777
lradius 73.2006
lwrist 23.0531
lhand -35.9518 -30.0502
lfingers 7.12502
lthumb -9.0633 -0.264923
rfemur -145.627 -14.4191 30.7221
rtibia 87.4533
rfoot -7.76582 1.50196
rtoes -17.3002
lfemur -141.498 14.956 -35.1146
ltibia 86.0229
lfoot -10.9636 -3.19909
ltoes -17.2888
394
root 3.73195 11.2498 9.65816 67.4715 -10.6744 -0.249412
lowerback -1.99469 -0.325183 -4.57061
upperback -11.0341 -0.610109 0.743443
thorax -10.5982 0.148699 3.39602
lowerneck -53.6371 -1.9275 0.101049
upperneck -1.3353 -3.46556 5.70167
head 5.99678 -0.975762 1.63535
rclavicle 2.5842e-015 -1.69464e-014
rhumerus -21.451 21.9558 -70.1852
rradius 98.4818
rwrist -15.4621
rhand -30.6514 -14.656
rfingers 7.12502
rthumb -3.94648 -44.5992
lclavicle 2.5842e-015 -1.69464e-014
lhumerus -20.4501 -2.85529 67.468
lradius 71.8466
lwrist 23.3056
lhand -35.9499 -30.2814
lfingers 7.12502
lthumb -9.06149 -0.496017
rfemur -144.392 -14.4699 30.2423
rtibia 86.5104
rfoot -7.78574 1.25126
rtoes -17.4176
lfemur -140.236 14.9678 -34.9146
ltibia 85.0419
lfoot -11.0203 -2.97887
ltoes -17.4868
395
root 3.73709 11.3604 9.69139 67.3071 -10.759 -0.241164
lowerback -2.06573 -0.328715 -4.57805
upperback -11.027 -0.61077 0.756076
thorax -10.5474 0.148055 3.41291
lowerneck -53.4349 -1.97048 0.097402
upperneck -1.40169 -3.5103 5.6834
head 5.96361 -1.00555 1.61862
rclavicle -9.34288e-015 2.6339e-014
rhumerus -21.8602 21.7554 -70.5706
rradius 97.6795
rwrist -16.4042
rhand -30.7464 -14.9787
rfingers 7.12502
rthumb -4.03825 -44.9202
lclavicle -9.34288e-015 2.6339e-014
lhumerus -20.7438 -2.95259 67.947
lradius 70.4767
lwrist 23.5622
lhand -35.9649 -30.4417
lfingers 7.12502
lthumb -9.07594 -0.656997
rfemur -143.105 -14.5255 29.7525
rtibia 85.539
rfoot -7.79579 0.988801
rtoes -17.5251
lfemur -138.918 14.9742 -34.6796
ltibia 84.0214
lfoot -11.0561 -2.74866
ltoes -17.6763
396
root 3.74235 11.4731 9.7241 67.1156 -10.8272 -0.229859
lowerback -2.11759 -0.336295 -4.57061
upperback -11.0204 -0.617064 0.773467
thorax -10.5079 0.143776 3.42723
lowerneck -53.2037 -2.00177 0.112929
upperneck -1.46881 -3.55 5.64865
head 5.92775 -1.03565 1.5934
rclavicle 4.96962e-016 1.78409e-014
rhumerus -22.284 21.5554 -70.9557
rradius 96.8671
rwrist -17.4262
rhand -30.8582 -15.3007
rfingers 7.12502
rthumb -4.14625 -45.2401
lclavicle 4.96962e-016 1.78409e-014
lhumerus -21.0601 -3.03786 68.4159
lradius 69.0947
lwrist 23.8297
lhand -35.9832 -30.5075
lfingers 7.12502
lthumb -9.09361 -0.723543
rfemur -141.774 -14.5857 29.2581
rtibia 84.5422
rfoot -7.79384 0.717431
rtoes -17.6226
lfemur -137.555 14.9719 -34.4166
ltibia 82.9643
lfoot -11.0716 -2.51411
ltoes -17.8736
397
root 3.74707 11.587 9.75676 66.8953 -10.8919 -0.217532
lowerback -2.15186 -0.344631 -4.56307
upperback -11.0129 -0.625349 0.790093
thorax -10.4777 0.138699 3.44101
lowerneck -52.9427 -2.03386 0.117673
upperneck -1.54473 -3.58533 5.63055
head 5.88775 -1.06193 1.57658
rclavicle 1.43125e-014 -8.34896e-015
rhumerus -22.7206 21.3438 -71.3409
rradius 96.0319
rwrist -18.4793
rhand -31.0009 -15.5893
rfingers 7.12502
rthumb -4.28403 -45.526
lclavicle 1.43125e-014 -8.34896e-015
lhumerus -21.3906 -3.12214 68.8704
lradius 67.6946
lwrist 24.1273
lhand -35.9829 -30.4496
lfingers 7.12502
lthumb -9.09327 -0.665651
rfemur -140.399 -14.6407 28.7525
rtibia 83.5246
rfoot -7.78217 0.439424
rtoes -17.718
lfemur -136.149 14.9725 -34.1445
ltibia 81.8779
lfoot -11.0721 -2.28265
ltoes -18.065
398
root 3.75132 11.7018 9.78949 66.6431 -10.9578 -0.206114
lowerback -2.16854 -0.352503 -4.56137
upperback -11 -0.63386 0.807834
thorax -10.452 0.134176 3.45942
lowerneck -51.974 -2.17791 -0.0714537
upperneck -2.37906 -3.63883 5.83027
head 5.92214 -1.09663 1.58999
rclavicle 9.64106e-015 -5.41688e-015
rhumerus -23.1576 21.1219 -71.7126
rradius 95.1732
rwrist -19.5289
rhand -31.1918 -15.8325
rfingers 7.12502
rthumb -4.46836 -45.7654
lclavicle 9.64106e-015 -5.41688e-015
lhumerus -21.7254 -3.20355 69.3111
lradius 66.2753
lwrist 24.4709
lhand -35.9366 -30.251
lfingers 7.12502
lthumb -9.04864 -0.465086
rfemur -138.982 -14.6879 28.2321
rtibia 82.491
rfoot -7.76048 0.156294
rtoes -17.8106
lfemur -134.705 14.9809 -33.875
ltibia 80.7694
lfoot -11.0592 -2.06105
ltoes -18.259
399
root 3.75481 11.8165 9.82297 66.3602 -11.0265 -0.198422
lowerback -2.17708 -0.35859 -4.56616
upperback -10.9796 -0.640292 0.826038
thorax -10.4226 0.131127 3.48183
lowerneck -51.689 -2.22787 -0.0923089
upperneck -2.44224 -3.68525 5.8403
head 5.88238 -1.12455 1.58638
rclavicle -1.2275e-014 -2.4202e-014
rhumerus -23.5906 20.8858 -72.0691
rradius 94.283
rwrist -20.5336
rhand -31.4192 -16.0367
rfingers 7.12502
rthumb -4.68793 -45.9648
lclavicle -1.2275e-014 -2.4202e-014
lhumerus -22.0574 -3.28748 69.7377
lradius 64.8341
lwrist 24.8793
lhand -35.8417 -29.9056
lfingers 7.12502
lthumb -8.95708 -0.115695
rfemur -137.531 -14.7229 27.7066
rtibia 81.4497
rfoot -7.73268 -0.125534
rtoes -17.8959
lfemur -133.227 15.0027 -33.5994
ltibia 79.6478
lfoot -11.0377 -1.83967
ltoes -18.4716
400
root 3.75779 11.9313 9.85702 66.0429 -11.097 -0.189407
lowerback -2.17644 -0.365064 -4.57603
upperback -10.9482 -0.647576 0.844485
thorax -10.3862 0.127776 3.50739
lowerneck -51.3846 -2.28401 -0.116505
upperneck -2.50552 -3.73773 5.85329
head 5.84149 -1.15534 1.58327
rclavicle 8.84592e-015 2.13694e-015
rhumerus -24.0081 20.6374 -72.4084
rradius 93.3514
rwrist -21.4583
rhand -31.6749 -16.1792
rfingers 7.12502
rthumb -4.93484 -46.1018
lclavicle 8.84592e-015 2.13694e-015
lhumerus -22.3816 -3.37274 70.1504
lradius 63.3731
lwrist 25.3558
lhand -35.7001 -29.4187
lfingers 7.12502
lthumb -8.82037 0.376957
rfemur -136.04 -14.7525 27.1701
rtibia 80.3989
rfoot -7.6989 -0.408632
rtoes -17.9844
lfemur -131.705 15.0306 -33.311
ltibia 78.508
lfoot -11.0041 -1.61268
ltoes -18.6891
401
root 3.76037 12.0468 9.8921 65.6718 -11.1648 -0.175956
lowerback -2.15546 -0.371376 -4.58332
upperback -10.8982 -0.655197 0.860685
thorax -10.3405 0.123362 3.52912
lowerneck -51.0656 -2.33916 -0.134174
upperneck -2.5659 -3.79176 5.8568
head 5.80003 -1.18825 1.57539
rclavicle 5.56597e-015 -6.11263e-015
rhumerus -24.4053 20.3698 -72.7299
rradius 92.3726
rwrist -22.2669
rhand -31.8962 -16.287
rfingers 7.12502
rthumb -5.14848 -46.2044
lclavicle 5.56597e-015 -6.11263e-015
lhumerus -22.6925 -3.46729 70.5491
lradius 61.8909
lwrist 25.8995
lhand -35.5196 -28.8418
lfingers 7.12502
lthumb -8.6462 0.96111
rfemur -134.488 -14.7848 26.6243
rtibia 79.3399
rfoot -7.66478 -0.689998
rtoes -18.0722
lfemur -130.112 15.063 -32.9949
ltibia 77.3485
lfoot -10.9621 -1.37119
ltoes -18.9212
402
root 3.76269 12.1642 9.92787 65.2383 -11.2202 -0.1586
lowerback -2.09914 -0.378783 -4.57812
upperback -10.8311 -0.66513 0.876939
thorax -10.2961 0.116437 3.54433
lowerneck -50.7333 -2.4 -0.150998
upperneck -2.61564 -3.85379 5.85937
head 5.76148 -1.22505 1.56572
rclavicle 9.0447e-015 9.44227e-015
rhumerus -24.7892 20.0839 -73.0422
rradius 91.3427
rwrist -22.9305
rhand -32.073 -16.3685
rfingers 7.12502
rthumb -5.31925 -46.2818
lclavicle 9.0447e-015 9.44227e-015
lhumerus -22.9977 -3.57402 70.9345
lradius 60.3913
lwrist 26.5076
lhand -35.3167 -28.2194
lfingers 7.12502
lthumb -8.45044 1.59156
rfemur -132.855 -14.8212 26.0766
rtibia 78.2633
rfoot -7.63116 -0.970248
rtoes -18.1689
lfemur -128.432 15.0963 -32.6507
ltibia 76.1533
lfoot -10.9037 -1.1272
ltoes -19.14
403
root 3.76469 12.2854 9.96437 64.7044 -11.264 -0.132868
lowerback -1.96675 -0.386923 -4.56334
upperback -10.7411 -0.67896 0.891468
thorax -10.2703 0.106831 3.55334
lowerneck -50.382 -2.47037 -0.169214
upperneck -2.6525 -3.9279 5.86576
head 5.72656 -1.2671 1.55562
rclavicle -2.5345e-014 4.85035e-014
rhumerus -25.1622 19.7823 -73.347
rradius 90.2566
rwrist -23.4389
rhand -32.1882 -16.4319
rfingers 7.12502
rthumb -5.43045 -46.3423
lclavicle -2.5345e-014 4.85035e-014
lhumerus -23.3016 -3.70405 71.3047
lradius 58.8763
lwrist 27.185
lhand -35.0994 -27.5693
lfingers 7.12502
lthumb -8.2407 2.24996
rfemur -131.092 -14.8681 25.5153
rtibia 77.162
rfoot -7.60352 -1.24949
rtoes -18.2788
lfemur -126.61 15.1335 -32.272
ltibia 74.9105
lfoot -10.8329 -0.880219
ltoes -19.3437
404
root 3.76655 12.4118 10.0019 64.0305 -11.2803 -0.087594
lowerback -1.70594 -0.399717 -4.53053
upperback -10.6242 -0.703758 0.908742
thorax -10.2895 0.091228 3.55751
lowerneck -50.0135 -2.55415 -0.197505
upperneck -2.66556 -4.0155 5.88385
head 5.69975 -1.31376 1.54909
rclavicle 8.69683e-015 -1.02374e-014
rhumerus -25.5269 19.4744 -73.6407
rradius 89.1179
rwrist -23.8029
rhand -32.2411 -16.5086
rfingers 7.12502
rthumb -5.48149 -46.4177
lclavicle 8.69683e-015 -1.02374e-014
lhumerus -23.6162 -3.85619 71.665
lradius 57.3528
lwrist 27.9186
lhand -34.8791 -26.9175
lfingers 7.12502
lthumb -8.02807 2.91001
rfemur -129.149 -14.9459 24.9418
rtibia 76.0301
rfoot -7.58893 -1.52556
rtoes -18.3781
lfemur -124.589 15.163 -31.8463
ltibia 73.6025
lfoot -10.7517 -0.639332
ltoes -19.5187
